<svg width="69" height="58" viewBox="0 0 69 58" fill="none" xmlns="http://www.w3.org/2000/svg">
<g style="mix-blend-mode:screen">
<path d="M40.3586 38.4825H28.9006L30.0548 36.8157C31.4398 34.7057 31.6917 34.1571 31.6917 33.3553C31.7076 32.7181 31.509 32.0943 31.1281 31.5849C30.7472 31.0755 30.2063 30.7105 29.5931 30.549C29.1944 30.549 29.1315 30.5489 28.4809 31.2874C27.5048 32.3408 26.4216 33.2884 25.2492 34.1149C23.0657 35.6233 20.6263 36.7174 18.0512 37.3432H17.5056L17.2328 37.1954C16.0402 36.4475 15.0576 35.4055 14.3781 34.1684C13.6987 32.9313 13.3449 31.5402 13.3505 30.127C13.348 29.2893 13.4755 28.4564 13.7282 27.6582L18.7647 11.9388H36.0356C38.4096 11.8977 40.7107 12.7632 42.4749 14.3609C44.2392 15.9585 45.3352 18.1694 45.542 20.5476C45.6194 21.6672 45.4841 22.7915 45.1433 23.8603L40.3586 38.4825ZM32.7409 36.3725H38.8267L43.0237 23.2484C43.2772 22.43 43.3769 21.5714 43.3175 20.7164C43.1481 18.8718 42.2895 17.1604 40.9148 15.927C39.5402 14.6936 37.7517 14.03 35.9097 14.0699H20.1707L15.5959 28.3335C15.4084 28.9196 15.3163 29.5324 15.3231 30.1481C15.3171 31.1311 15.5444 32.1013 15.986 32.9784C16.4276 33.8554 17.0708 34.6139 17.8623 35.1909C20.0261 34.6116 22.0717 33.6546 23.9061 32.3636C24.975 31.6391 25.9542 30.7891 26.8231 29.8316C27.12 29.4028 27.5154 29.0524 27.9757 28.8099C28.4359 28.5675 28.9476 28.4403 29.4672 28.439C30.6482 28.5902 31.7313 29.1767 32.5067 30.085C33.2821 30.9933 33.6946 32.1586 33.6643 33.3553C33.6476 34.4288 33.3274 35.4753 32.7409 36.3725Z" fill="url(#paint0_linear_4_76)"/>
<path d="M53.2856 38.4826H28.9006L30.0548 36.8157C31.4398 34.7057 31.6917 34.1571 31.6917 33.3553C31.7076 32.7182 31.509 32.0943 31.1281 31.5849C30.7472 31.0755 30.2063 30.7105 29.5931 30.549C29.1944 30.549 29.1315 30.549 28.4809 31.2875C27.5048 32.3408 26.4216 33.2885 25.2492 34.1149C23.0657 35.6233 20.6263 36.7174 18.0512 37.3432H17.5056L17.2328 37.1955C16.0402 36.4475 15.0576 35.4056 14.3781 34.1685C13.6987 32.9314 13.3449 31.5402 13.3505 30.127C13.348 29.2894 13.4755 28.4564 13.7282 27.6583L18.5338 12.6773C19.1844 10.715 20.8632 5.56661 20.9262 5.31341C21.5461 3.76027 22.6114 2.42752 23.9864 1.4845C25.3615 0.541488 26.9844 0.0307957 28.6488 0.0173316H61.0082C62.2585 -0.064493 63.5108 0.144172 64.668 0.627156C65.8253 1.11014 66.8564 1.85446 67.6815 2.80251C68.3053 3.64769 68.7233 4.62818 68.9019 5.66522C69.0805 6.70226 69.0147 7.76696 68.7098 8.7738L68.6049 9.28021C68.479 9.80771 68.3741 10.2719 68.2062 10.8205L61.1551 32.6168C60.775 33.8158 60.1293 34.9124 59.2664 35.824C58.4953 36.6431 57.5688 37.2985 56.5415 37.7515C55.5143 38.2045 54.4072 38.4459 53.2856 38.4615V38.4826ZM32.7409 36.3726H53.2856C53.7452 36.3698 54.203 36.3131 54.6496 36.2038C55.8343 35.9325 56.9096 35.3073 57.7345 34.4103C58.3881 33.7297 58.8765 32.9065 59.1615 32.0049L66.1915 10.2086C66.3384 9.72332 66.4434 9.30131 66.5483 8.81601L66.6952 8.28851C66.9175 7.58107 66.9726 6.83123 66.856 6.09864C66.7394 5.36605 66.4544 4.67092 66.0237 4.06852C65.3904 3.38049 64.6097 2.8463 63.7408 2.50634C62.8719 2.16638 61.9374 2.02953 61.0082 2.10621H28.5439C27.3105 2.11898 26.108 2.49577 25.0858 3.18973C24.0636 3.88369 23.2666 4.86427 22.7939 6.00971C22.7939 6.00971 20.6954 12.5507 20.4225 13.2892L15.6169 28.2913C15.4294 28.8774 15.3372 29.4902 15.3441 30.1059C15.3381 31.0889 15.5653 32.0592 16.0069 32.9362C16.4485 33.8132 17.0918 34.5717 17.8833 35.1488C20.047 34.5694 22.0927 33.6124 23.9271 32.3214C24.996 31.5969 25.9753 30.7469 26.8441 29.7894C27.141 29.3606 27.5363 29.0102 27.9966 28.7677C28.4569 28.5253 28.9686 28.3981 29.4882 28.3968C30.6692 28.548 31.7523 29.1345 32.5277 30.0428C33.3031 30.9511 33.7156 32.1165 33.6853 33.3131C33.6704 34.4031 33.3424 35.4656 32.7409 36.3726Z" fill="url(#paint1_linear_4_76)"/>
<path d="M12.3641 57.9789C11.8311 57.9713 11.3209 57.7601 10.9372 57.3881L0.990095 47.4922L0.801235 47.2601C0.15086 46.1624 -0.115111 44.8773 0.0457611 43.6098L4.24283 30.3801C7.95724 18.8173 8.25103 17.9311 8.4399 17.7201C9.12393 16.0404 10.2847 14.6004 11.7775 13.5798C13.2703 12.5591 15.029 12.0031 16.834 11.981H20.8003L15.5539 28.3545C15.3664 28.9407 15.2743 29.5534 15.2811 30.1691C15.2751 31.1521 15.5024 32.1224 15.944 32.9994C16.3856 33.8765 17.0288 34.635 17.8203 35.212C19.9841 34.6327 22.0298 33.6757 23.8641 32.3846C25.0685 31.5426 26.1738 30.5657 27.1588 29.4728C27.4463 29.1555 27.7962 28.9016 28.1863 28.7273C28.5765 28.553 28.9983 28.462 29.4252 28.46C30.6062 28.6112 31.6893 29.1978 32.4647 30.1061C33.2402 31.0144 33.6526 32.1797 33.6223 33.3763C33.4452 35.1186 32.7086 36.7556 31.5238 38.0394C28.455 42.6072 24.3096 46.3404 19.4572 48.9059C18.3908 49.4794 17.2905 49.9868 16.1625 50.4251L14.1689 56.5863C14.0269 56.9947 13.7636 57.3493 13.4145 57.6022C13.0654 57.855 12.6475 57.9939 12.2173 58L12.3641 57.9789ZM2.585 46.1207L12.4061 55.89L14.6306 48.8004L15.1132 48.6105C16.3235 48.1577 17.5015 47.6219 18.6388 47.0069C23.1818 44.6094 27.0614 41.1146 29.9289 36.8367C31.3349 34.7267 31.5867 34.157 31.5867 33.3552C31.6027 32.7181 31.4041 32.0943 31.0232 31.5849C30.6423 31.0755 30.1014 30.7104 29.4882 30.5489C29.3602 30.5438 29.2325 30.5656 29.1132 30.6128C28.994 30.66 28.8859 30.7317 28.7957 30.8232C27.7078 32.0573 26.4827 33.1618 25.1442 34.1148C22.9608 35.6233 20.5213 36.7174 17.9463 37.3431H17.4006L17.1278 37.1954C15.9353 36.4475 14.9526 35.4055 14.2732 34.1684C13.5937 32.9313 13.24 31.5401 13.2455 30.1269C13.2431 29.2893 13.3706 28.4564 13.6233 27.6582L17.9882 14.0487H16.897C15.4937 14.0609 14.1253 14.49 12.964 15.2822C11.8027 16.0744 10.9004 17.1943 10.3705 18.5008C10.3705 18.7751 9.34228 21.6236 6.32039 31.0131L2.12332 44.2217C2.13398 44.8815 2.29175 45.5304 2.585 46.1207Z" fill="url(#paint2_linear_4_76)"/>
</g>
<defs>
<linearGradient id="paint0_linear_4_76" x1="7.49556" y1="-5.17329" x2="60.3591" y2="68.4042" gradientUnits="userSpaceOnUse">
<stop stop-color="white"/>
<stop offset="1" stop-color="#383838"/>
</linearGradient>
<linearGradient id="paint1_linear_4_76" x1="18.5129" y1="-13.0646" x2="71.3553" y2="60.513" gradientUnits="userSpaceOnUse">
<stop stop-color="white"/>
<stop offset="1" stop-color="#383838"/>
</linearGradient>
<linearGradient id="paint2_linear_4_76" x1="-6.64856" y1="4.99687" x2="46.1939" y2="78.5745" gradientUnits="userSpaceOnUse">
<stop stop-color="white"/>
<stop offset="1" stop-color="#383838"/>
</linearGradient>
</defs>
</svg>
