<svg width="19" height="13" viewBox="0 0 19 13" fill="none" xmlns="http://www.w3.org/2000/svg">
<path d="M12.1167 0.248909C11.7801 0.587426 11.7801 1.14936 12.1101 1.49465L16.1226 5.61779H0.851337C0.382772 5.61779 0 6.01047 0 6.49793C0 6.98539 0.382772 7.37807 0.851337 7.37807H16.116L12.1035 11.5012C11.7735 11.8465 11.7801 12.4017 12.1101 12.747C12.4467 13.0855 12.9812 13.0855 13.3178 12.7402L18.7558 7.1208C18.8284 7.03956 18.8878 6.95154 18.934 6.84322C18.9802 6.73489 19 6.6198 19 6.5047C19 6.27451 18.9142 6.05786 18.7558 5.8886L13.3178 0.269221C12.9944 -0.0828369 12.4533 -0.0896075 12.1167 0.248909Z" fill="black"/>
</svg>
