<svg width="25" height="25" viewBox="0 0 25 25" fill="none" xmlns="http://www.w3.org/2000/svg">
<path fill-rule="evenodd" clip-rule="evenodd" d="M6.25 0C4.5924 0 3.00269 0.65848 1.83058 1.83058C0.65848 3.00269 0 4.5924 0 6.25V18.75C0 20.4076 0.65848 21.9973 1.83058 23.1694C3.00269 24.3415 4.5924 25 6.25 25H18.75C20.4076 25 21.9973 24.3415 23.1694 23.1694C24.3415 21.9973 25 20.4076 25 18.75V6.25C25 4.5924 24.3415 3.00269 23.1694 1.83058C21.9973 0.65848 20.4076 0 18.75 0H6.25ZM17.1625 10.855C17.2748 10.7352 17.3624 10.5944 17.4202 10.4407C17.4781 10.287 17.5052 10.1235 17.4998 9.95934C17.4945 9.79521 17.4569 9.63374 17.3891 9.48415C17.3214 9.33456 17.2248 9.19978 17.105 9.0875C16.9852 8.97522 16.8444 8.88764 16.6907 8.82977C16.537 8.77189 16.3735 8.74485 16.2093 8.75019C16.0452 8.75553 15.8837 8.79314 15.7342 8.86088C15.5846 8.92863 15.4498 9.02517 15.3375 9.145L11.4838 13.2575L9.58 11.5662C9.33057 11.3589 9.01031 11.2566 8.68687 11.281C8.36344 11.3054 8.06215 11.4546 7.84665 11.697C7.63116 11.9395 7.51834 12.2562 7.53203 12.5802C7.54572 12.9043 7.68484 13.2104 7.92 13.4338L10.7325 15.9338C10.9759 16.1499 11.2939 16.2626 11.6191 16.2479C11.9443 16.2332 12.2509 16.0923 12.4738 15.855L17.1613 10.855H17.1625Z" fill="black"/>
</svg>
