<svg width="44" height="36" viewBox="0 0 44 36" fill="none" xmlns="http://www.w3.org/2000/svg">
<path d="M25.7358 23.8857H18.4293L19.1653 22.851C20.0485 21.5414 20.2091 21.2009 20.2091 20.7032C20.2192 20.3078 20.0926 19.9205 19.8497 19.6044C19.6068 19.2882 19.2619 19.0616 18.8709 18.9614C18.6166 18.9614 18.5765 18.9614 18.1616 19.4197C17.5392 20.0735 16.8485 20.6617 16.1008 21.1747C14.7085 22.111 13.1529 22.7901 11.5108 23.1785H11.1629L10.9889 23.0868C10.2284 22.6225 9.60182 21.9758 9.16854 21.2079C8.73526 20.4401 8.50968 19.5766 8.51322 18.6994C8.51167 18.1795 8.59295 17.6625 8.75411 17.1671L11.9658 7.41023H22.9791C24.4929 7.38471 25.9603 7.92194 27.0854 8.91359C28.2104 9.90523 28.9093 11.2775 29.0411 12.7536C29.0905 13.4486 29.0043 14.1464 28.7869 14.8098L25.7358 23.8857ZM20.8782 22.576H24.7589L27.4353 14.43C27.597 13.922 27.6605 13.3891 27.6227 12.8584C27.5146 11.7135 26.9671 10.6512 26.0905 9.88567C25.2139 9.12013 24.0734 8.70824 22.8988 8.73299H12.8624L9.9451 17.5862C9.82553 17.9501 9.76678 18.3304 9.77113 18.7125C9.76732 19.3227 9.91223 19.9249 10.1938 20.4693C10.4754 21.0136 10.8856 21.4844 11.3904 21.8426C12.7701 21.483 14.0746 20.889 15.2443 20.0877C15.926 19.638 16.5504 19.1104 17.1044 18.5161C17.2938 18.25 17.5459 18.0324 17.8394 17.882C18.133 17.7315 18.4592 17.6525 18.7906 17.6517C19.5437 17.7456 20.2343 18.1096 20.7288 18.6734C21.2233 19.2372 21.4863 19.9605 21.467 20.7032C21.4563 21.3695 21.2521 22.0191 20.8782 22.576Z" fill="url(#paint0_linear_184_282)"/>
<path d="M33.9791 23.8857H18.4293L19.1653 22.8511C20.0485 21.5414 20.2091 21.2009 20.2091 20.7033C20.2192 20.3078 20.0926 19.9206 19.8497 19.6044C19.6068 19.2882 19.2619 19.0617 18.8709 18.9614C18.6166 18.9614 18.5765 18.9614 18.1616 19.4198C17.5392 20.0736 16.8485 20.6618 16.1008 21.1747C14.7085 22.111 13.1529 22.7901 11.5108 23.1785H11.1629L10.9889 23.0868C10.2284 22.6226 9.60182 21.9759 9.16854 21.208C8.73526 20.4401 8.50968 19.5767 8.51322 18.6995C8.51167 18.1796 8.59295 17.6626 8.75411 17.1672L11.8186 7.86867C12.2334 6.65069 13.304 3.45514 13.3441 3.29798C13.7395 2.33396 14.4187 1.50673 15.2956 0.921415C16.1724 0.336096 17.2073 0.0191146 18.2687 0.0107575H38.9036C39.701 -0.0400301 40.4995 0.0894859 41.2375 0.389269C41.9754 0.689052 42.633 1.15104 43.1591 1.73949C43.5569 2.26408 43.8234 2.87266 43.9373 3.51634C44.0512 4.16002 44.0092 4.82087 43.8148 5.44581L43.7479 5.76013C43.6677 6.08754 43.6007 6.37566 43.4937 6.71617L38.9973 20.2449C38.755 20.9891 38.3432 21.6698 37.793 22.2356C37.3013 22.744 36.7104 23.1508 36.0554 23.432C35.4003 23.7131 34.6943 23.863 33.9791 23.8726V23.8857ZM20.8782 22.5761H33.9791C34.2722 22.5743 34.5641 22.5392 34.8489 22.4713C35.6044 22.3029 36.2901 21.9149 36.8161 21.3581C37.2329 20.9357 37.5443 20.4247 37.7261 19.8651L42.209 6.33638C42.3027 6.03516 42.3696 5.77322 42.4365 5.472L42.5302 5.14459C42.6719 4.70549 42.707 4.24007 42.6327 3.78536C42.5583 3.33065 42.3766 2.89919 42.102 2.52529C41.6981 2.09824 41.2003 1.76667 40.6462 1.55566C40.0921 1.34465 39.4962 1.25971 38.9036 1.3073H18.2018C17.4153 1.31523 16.6485 1.5491 15.9966 1.97983C15.3448 2.41057 14.8366 3.0192 14.5351 3.73017C14.5351 3.73017 13.1969 7.79008 13.023 8.24846L9.95848 17.5601C9.83891 17.9239 9.78016 18.3042 9.78451 18.6864C9.78069 19.2965 9.9256 19.8988 10.2072 20.4431C10.4888 20.9875 10.899 21.4583 11.4037 21.8165C12.7835 21.4569 14.088 20.8629 15.2577 20.0615C15.9394 19.6119 16.5638 19.0843 17.1178 18.49C17.3072 18.2238 17.5593 18.0063 17.8528 17.8558C18.1463 17.7054 18.4726 17.6264 18.804 17.6256C19.557 17.7194 20.2477 18.0835 20.7422 18.6473C21.2367 19.211 21.4997 19.9343 21.4803 20.6771C21.4708 21.3536 21.2617 22.0131 20.8782 22.5761Z" fill="black"/>
<path d="M7.88439 35.9869C7.54448 35.9823 7.21915 35.8512 6.97442 35.6202L0.631365 29.478L0.510932 29.3339C0.0962009 28.6526 -0.0734041 27.8549 0.029181 27.0682L2.70557 18.8567C5.07418 11.6798 5.26153 11.1297 5.38197 10.9988C5.81816 9.95619 6.55839 9.06239 7.51031 8.42889C8.46222 7.7954 9.58368 7.45025 10.7348 7.43652H13.2639L9.91845 17.5994C9.79888 17.9632 9.74013 18.3436 9.74448 18.7257C9.74066 19.3359 9.88557 19.9381 10.1672 20.4825C10.4488 21.0268 10.859 21.4976 11.3637 21.8558C12.7435 21.4962 14.048 20.9022 15.2177 20.1009C15.9857 19.5782 16.6905 18.9719 17.3187 18.2935C17.502 18.0966 17.7251 17.939 17.9739 17.8308C18.2227 17.7226 18.4917 17.6661 18.7639 17.6649C19.517 17.7588 20.2077 18.1228 20.7022 18.6866C21.1966 19.2504 21.4597 19.9737 21.4403 20.7164C21.3274 21.7978 20.8577 22.8139 20.1021 23.6107C18.1452 26.4459 15.5018 28.763 12.4075 30.3554C11.7275 30.7114 11.0258 31.0263 10.3065 31.2984L9.03524 35.1226C8.94472 35.376 8.77679 35.5962 8.55418 35.7531C8.33157 35.9101 8.06506 35.9963 7.79072 36L7.88439 35.9869ZM1.64841 28.6267L7.91116 34.6904L9.32964 30.29L9.63742 30.1721C10.4092 29.891 11.1604 29.5585 11.8856 29.1768C14.7826 27.6886 17.2565 25.5195 19.0851 22.8642C19.9817 21.5546 20.1423 21.201 20.1423 20.7033C20.1524 20.3079 20.0258 19.9206 19.7829 19.6045C19.54 19.2883 19.1951 19.0617 18.8041 18.9615C18.7224 18.9583 18.641 18.9718 18.565 19.0011C18.4889 19.0304 18.42 19.0749 18.3625 19.1317C17.6688 19.8977 16.8875 20.5832 16.034 21.1748C14.6417 22.1111 13.0861 22.7902 11.444 23.1785H11.0961L10.9221 23.0869C10.1616 22.6226 9.53502 21.9759 9.10174 21.208C8.66846 20.4402 8.44288 19.5767 8.44643 18.6995C8.44487 18.1796 8.52615 17.6626 8.68731 17.1672L11.4708 8.71998H10.7749C9.88004 8.7275 9.00744 8.99387 8.2669 9.48557C7.52636 9.97728 6.95096 10.6724 6.6131 11.4833C6.6131 11.6536 5.9574 13.4216 4.0304 19.2496L1.354 27.448C1.3608 27.8575 1.4614 28.2603 1.64841 28.6267Z" fill="url(#paint1_linear_184_282)"/>
<defs>
<linearGradient id="paint0_linear_184_282" x1="4.77966" y1="-3.21105" x2="37.2993" y2="43.2902" gradientUnits="userSpaceOnUse">
<stop/>
<stop offset="1" stop-color="#383838"/>
</linearGradient>
<linearGradient id="paint1_linear_184_282" x1="-4.23967" y1="3.10158" x2="28.2668" y2="49.6024" gradientUnits="userSpaceOnUse">
<stop/>
<stop offset="1" stop-color="#383838"/>
</linearGradient>
</defs>
</svg>
