<svg width="20" height="24" viewBox="0 0 20 24" fill="none" xmlns="http://www.w3.org/2000/svg">
<g clip-path="url(#clip0_184_361)">
<path d="M10 2C8.02219 2 6.08879 2.58649 4.4443 3.6853C2.79981 4.78412 1.51809 6.3459 0.761209 8.17317C0.00433284 10.0004 -0.193701 12.0111 0.192152 13.9509C0.578004 15.8907 1.53041 17.6725 2.92894 19.0711C4.32746 20.4696 6.10929 21.422 8.0491 21.8079C9.98891 22.1937 11.9996 21.9957 13.8268 21.2388C15.6541 20.4819 17.2159 19.2002 18.3147 17.5557C19.4135 15.9112 20 13.9778 20 12C20 10.6868 19.7413 9.38642 19.2388 8.17317C18.7363 6.95991 17.9997 5.85752 17.0711 4.92893C16.1425 4.00035 15.0401 3.26375 13.8268 2.7612C12.6136 2.25866 11.3132 2 10 2ZM10 20C8.41775 20 6.87104 19.5308 5.55544 18.6518C4.23985 17.7727 3.21447 16.5233 2.60897 15.0615C2.00347 13.5997 1.84504 11.9911 2.15372 10.4393C2.4624 8.88743 3.22433 7.46197 4.34315 6.34315C5.46197 5.22433 6.88743 4.4624 8.43928 4.15372C9.99113 3.84504 11.5997 4.00346 13.0615 4.60896C14.5233 5.21447 15.7727 6.23984 16.6518 7.55544C17.5308 8.87103 18 10.4177 18 12C18 14.1217 17.1572 16.1566 15.6569 17.6569C14.1566 19.1571 12.1217 20 10 20Z" fill="black"/>
<path d="M10 7C9.0111 7 8.0444 7.29324 7.22215 7.84265C6.39991 8.39206 5.75904 9.17295 5.3806 10.0866C5.00217 11.0002 4.90315 12.0055 5.09608 12.9755C5.289 13.9454 5.76521 14.8363 6.46447 15.5355C7.16373 16.2348 8.05465 16.711 9.02455 16.9039C9.99446 17.0969 10.9998 16.9978 11.9134 16.6194C12.827 16.241 13.6079 15.6001 14.1574 14.7779C14.7068 13.9556 15 12.9889 15 12C15 10.6739 14.4732 9.40215 13.5355 8.46447C12.5979 7.52678 11.3261 7 10 7Z" fill="black"/>
</g>
<defs>
<clipPath id="clip0_184_361">
<rect width="20" height="24" fill="white"/>
</clipPath>
</defs>
</svg>
