<svg width="19" height="13" viewBox="0 0 19 13" fill="none" xmlns="http://www.w3.org/2000/svg">
<path d="M6.88329 0.248909C7.21987 0.587426 7.21987 1.14936 6.88989 1.49465L2.87739 5.61779H18.1487C18.6172 5.61779 19 6.01047 19 6.49793C19 6.9854 18.6172 7.37807 18.1487 7.37807H2.88399L6.89649 11.5012C7.22647 11.8465 7.21987 12.4017 6.88989 12.747C6.55332 13.0855 6.01876 13.0855 5.68218 12.7402L0.244181 7.1208C0.171586 7.03956 0.112191 6.95154 0.0659943 6.84322C0.0197977 6.73489 0 6.6198 0 6.5047C0 6.27451 0.0857923 6.05786 0.244181 5.8886L5.68218 0.269221C6.00556 -0.0828369 6.54672 -0.0896075 6.88329 0.248909Z" fill="black"/>
</svg>
