<svg width="28" height="28" viewBox="0 0 28 28" fill="none" xmlns="http://www.w3.org/2000/svg">
<path d="M7.59684 23.671C8.75793 23.671 9.70919 24.6425 9.70919 25.8426C9.70919 27.0285 8.75793 28 7.59684 28C6.42175 28 5.4705 27.0285 5.4705 25.8426C5.4705 24.6425 6.42175 23.671 7.59684 23.671ZM23.3346 23.671C24.4957 23.671 25.4469 24.6425 25.4469 25.8426C25.4469 27.0285 24.4957 28 23.3346 28C22.1595 28 21.2082 27.0285 21.2082 25.8426C21.2082 24.6425 22.1595 23.671 23.3346 23.671ZM1.08952 0.000167285L1.23208 0.0122336L4.56848 0.525141C5.04411 0.612293 5.39384 1.0109 5.4358 1.49667L5.70159 4.69698C5.74356 5.1556 6.10728 5.49849 6.55493 5.49849H25.4472C26.3005 5.49849 26.8601 5.79852 27.4197 6.45573C27.9792 7.11294 28.0772 8.05589 27.9513 8.91168L26.6223 18.284C26.3705 20.0856 24.8597 21.4129 23.083 21.4129H7.82094C5.96039 21.4129 4.42159 19.9571 4.26771 18.0712L2.98072 2.49676L0.868362 2.1253C0.308798 2.02529 -0.0828964 1.46809 0.0150273 0.896607C0.112951 0.312263 0.658526 -0.0749178 1.23208 0.0122336L1.08952 0.000167285ZM20.8448 10.7833H16.9698C16.3823 10.7833 15.9206 11.2548 15.9206 11.8548C15.9206 12.4406 16.3823 12.9264 16.9698 12.9264H20.8448C21.4323 12.9264 21.894 12.4406 21.894 11.8548C21.894 11.2548 21.4323 10.7833 20.8448 10.7833Z" fill="#343434"/>
</svg>
